<svg width="112" height="14" viewBox="0 0 112 14" fill="none" xmlns="http://www.w3.org/2000/svg">
<path d="M13.168 13.088C13.168 13.248 13.104 13.376 13.008 13.488C12.88 13.584 12.752 13.632 12.608 13.632H2.08C0.992 13.632 0.464 13.088 0.464 12V9.792C0.464 9.648 0.512 9.52 0.624 9.408C0.72 9.312 0.848 9.264 1.008 9.264H9.536V8.816H0.944C0.784 8.816 0.656 8.768 0.56 8.656C0.448 8.56 0.4 8.448 0.4 8.288V7.296C0.4 7.152 0.448 7.024 0.56 6.912C0.656 6.816 0.784 6.768 0.944 6.768H12.528C12.672 6.768 12.8 6.832 12.928 6.928C13.024 7.056 13.088 7.184 13.088 7.328V10.608C13.088 10.768 13.024 10.88 12.928 10.976C12.8 11.088 12.672 11.136 12.528 11.136H4.048V11.552H12.608C12.752 11.552 12.88 11.6 13.008 11.712C13.104 11.808 13.168 11.936 13.168 12.096V13.088ZM1.792 6.224C1.216 6.224 0.768 6.08 0.464 5.792C0.144 5.52 0 5.072 0 4.464V0.704C0 0.56 0.048 0.432 0.16 0.320001C0.256 0.224 0.368 0.160001 0.528 0.160001H3.04C3.184 0.160001 3.312 0.224 3.424 0.320001C3.52 0.432 3.584 0.56 3.584 0.704V3.744H8.272C8.416 3.744 8.544 3.808 8.656 3.904C8.752 4.032 8.816 4.16 8.816 4.32V5.68C8.816 5.84 8.752 5.968 8.656 6.064C8.544 6.176 8.416 6.224 8.272 6.224H1.792ZM12.544 0C12.688 0 12.816 0.0640001 12.928 0.160001C13.024 0.272 13.088 0.400001 13.088 0.544001V1.728H14.16C14.304 1.728 14.432 1.792 14.544 1.888C14.64 2.016 14.704 2.144 14.704 2.304V3.936C14.704 4.096 14.64 4.224 14.544 4.32C14.432 4.432 14.304 4.48 14.16 4.48H13.088V5.824C13.088 5.984 13.024 6.112 12.928 6.208C12.816 6.32 12.688 6.368 12.544 6.368H10.144C9.984 6.368 9.856 6.32 9.76 6.208C9.648 6.112 9.6 5.984 9.6 5.824V0.544001C9.6 0.400001 9.648 0.272 9.76 0.160001C9.856 0.0640001 9.984 0 10.144 0H12.544Z" fill="#373737"/>
<path d="M23.9755 0.320001C24.1355 0.320001 24.2635 0.384001 24.3755 0.48C24.4715 0.592 24.5355 0.72 24.5355 0.864V10.592C24.5355 11.488 24.3115 12.16 23.8795 12.624C23.4315 13.072 22.7275 13.312 21.7995 13.312H18.4715C16.6315 13.312 15.7195 12.4 15.7195 10.592V0.864C15.7195 0.72 15.7675 0.592 15.8955 0.48C15.9915 0.384001 16.1195 0.320001 16.2795 0.320001H23.9755ZM19.1115 10.592H21.1755V3.04H19.1115V10.592ZM28.2635 0.160001C28.4075 0.160001 28.5355 0.224 28.6475 0.320001C28.7435 0.432 28.8075 0.56 28.8075 0.704V4.608H29.8795C30.0235 4.608 30.1515 4.672 30.2635 4.768C30.3595 4.896 30.4235 5.024 30.4235 5.184V7.136C30.4235 7.296 30.3595 7.424 30.2635 7.52C30.1515 7.632 30.0235 7.68 29.8795 7.68H28.8075V13.248C28.8075 13.408 28.7435 13.536 28.6475 13.648C28.5355 13.744 28.4075 13.792 28.2635 13.792H25.8475C25.6875 13.792 25.5755 13.744 25.4795 13.648C25.3675 13.536 25.3195 13.408 25.3195 13.248V0.704C25.3195 0.56 25.3675 0.432 25.4795 0.320001C25.5755 0.224 25.6875 0.160001 25.8475 0.160001H28.2635Z" fill="#373737"/>
<path d="M39.519 0.320001C39.663 0.320001 39.791 0.384001 39.903 0.48C39.999 0.608001 40.063 0.736 40.063 0.896001V2.496C40.063 2.656 39.999 2.784 39.903 2.88C39.791 2.992 39.663 3.04 39.519 3.04H34.799V10.592H39.839C39.983 10.592 40.111 10.656 40.223 10.752C40.319 10.88 40.383 11.008 40.383 11.168V12.768C40.383 12.912 40.319 13.04 40.223 13.152C40.111 13.248 39.983 13.312 39.839 13.312H34.159C32.319 13.312 31.407 12.4 31.407 10.592V0.864C31.407 0.72 31.455 0.592 31.583 0.48C31.679 0.384001 31.807 0.320001 31.967 0.320001H39.519ZM43.951 0.160001C44.095 0.160001 44.223 0.224 44.335 0.320001C44.431 0.432 44.495 0.56 44.495 0.704V4.608H45.567C45.711 4.608 45.839 4.672 45.951 4.768C46.047 4.896 46.111 5.024 46.111 5.184V7.136C46.111 7.296 46.047 7.424 45.951 7.52C45.839 7.632 45.711 7.68 45.567 7.68H44.495V13.248C44.495 13.408 44.431 13.536 44.335 13.648C44.223 13.744 44.095 13.792 43.951 13.792H41.535C41.375 13.792 41.263 13.744 41.167 13.648C41.055 13.536 41.007 13.408 41.007 13.248V0.704C41.007 0.56 41.055 0.432 41.167 0.320001C41.263 0.224 41.375 0.160001 41.535 0.160001H43.951Z" fill="#373737"/>
<path d="M60.8947 0.160001C61.0387 0.160001 61.1668 0.224 61.2788 0.320001C61.3748 0.432 61.4388 0.56 61.4388 0.704V13.12C61.4388 13.28 61.3748 13.408 61.2788 13.52C61.1668 13.616 61.0387 13.664 60.8947 13.664H58.9268C58.7668 13.664 58.6548 13.616 58.5588 13.52C58.4468 13.408 58.3988 13.28 58.3988 13.12V7.6H57.5187V9.856C57.5187 10.368 57.4548 10.816 57.3268 11.232C57.1988 11.648 57.0068 12.016 56.7668 12.336C56.5107 12.64 56.2067 12.88 55.8387 13.056C55.4548 13.216 55.0067 13.312 54.5267 13.312H53.3747C52.8627 13.312 52.4308 13.216 52.0628 13.056C51.6788 12.88 51.3748 12.64 51.1348 12.336C50.8787 12.016 50.7028 11.648 50.5908 11.232C50.4628 10.816 50.3988 10.368 50.3988 9.856V3.632C50.3988 3.136 50.4628 2.672 50.5908 2.24C50.7028 1.824 50.8787 1.456 51.1348 1.136C51.3748 0.832001 51.6788 0.592 52.0628 0.416C52.4308 0.256001 52.8627 0.160001 53.3747 0.160001H54.5267C55.0067 0.160001 55.4548 0.256001 55.8387 0.416C56.2067 0.592 56.5107 0.832001 56.7668 1.136C57.0068 1.456 57.1988 1.824 57.3268 2.24C57.4548 2.672 57.5187 3.136 57.5187 3.632V4.528H58.3988V0.704C58.3988 0.56 58.4468 0.432 58.5588 0.320001C58.6548 0.224 58.7668 0.160001 58.9268 0.160001H60.8947ZM64.6068 0.160001C64.7507 0.160001 64.8788 0.224 64.9908 0.320001C65.0868 0.432 65.1507 0.56 65.1507 0.704V13.248C65.1507 13.408 65.0868 13.536 64.9908 13.648C64.8788 13.744 64.7507 13.792 64.6068 13.792H62.6068C62.4468 13.792 62.3348 13.744 62.2388 13.648C62.1268 13.536 62.0788 13.408 62.0788 13.248V0.704C62.0788 0.56 62.1268 0.432 62.2388 0.320001C62.3348 0.224 62.4468 0.160001 62.6068 0.160001H64.6068ZM53.9507 2.88C53.7907 2.88 53.6628 2.944 53.5508 3.056C53.4228 3.184 53.3587 3.424 53.3587 3.808V9.68C53.3587 10.064 53.4228 10.304 53.5508 10.416C53.6628 10.544 53.7907 10.592 53.9507 10.592H54.0308C54.1748 10.592 54.3188 10.544 54.4468 10.416C54.5748 10.304 54.6388 10.064 54.6388 9.68V3.808C54.6388 3.424 54.5748 3.184 54.4468 3.056C54.3188 2.944 54.1748 2.88 54.0308 2.88H53.9507Z" fill="#373737"/>
<path d="M67.019 13.312C66.859 13.312 66.731 13.248 66.635 13.152C66.523 13.04 66.475 12.912 66.475 12.768V11.168C66.475 11.008 66.523 10.88 66.635 10.752C66.731 10.656 66.859 10.592 67.019 10.592H67.435V3.04H67.179C67.019 3.04 66.891 2.992 66.795 2.88C66.683 2.784 66.635 2.656 66.635 2.496V0.896001C66.635 0.736 66.683 0.608001 66.795 0.48C66.891 0.384001 67.019 0.320001 67.179 0.320001H74.907C75.051 0.320001 75.179 0.384001 75.291 0.48C75.387 0.608001 75.451 0.736 75.451 0.896001V2.496C75.451 2.656 75.387 2.784 75.291 2.88C75.179 2.992 75.051 3.04 74.907 3.04H74.651V10.592H75.067C75.211 10.592 75.339 10.656 75.451 10.752C75.547 10.88 75.611 11.008 75.611 11.168V12.768C75.611 12.912 75.547 13.04 75.451 13.152C75.339 13.248 75.211 13.312 75.067 13.312H67.019ZM79.499 0.160001C79.643 0.160001 79.771 0.224 79.883 0.320001C79.979 0.432 80.043 0.56 80.043 0.704V13.248C80.043 13.408 79.979 13.536 79.883 13.648C79.771 13.744 79.643 13.792 79.499 13.792H77.083C76.923 13.792 76.811 13.744 76.715 13.648C76.603 13.536 76.555 13.408 76.555 13.248V0.704C76.555 0.56 76.603 0.432 76.715 0.320001C76.811 0.224 76.923 0.160001 77.083 0.160001H79.499ZM70.507 10.592H71.659V3.04H70.507V10.592Z" fill="#373737"/>
<path d="M82.438 3.2C82.278 3.2 82.15 3.152 82.054 3.04C81.942 2.944 81.894 2.816 81.894 2.656V0.736C81.894 0.576 81.942 0.448 82.054 0.320001C82.15 0.224 82.278 0.160001 82.438 0.160001H94.134C94.294 0.160001 94.422 0.224 94.534 0.320001C94.63 0.432 94.694 0.56 94.694 0.704V8.448C94.694 8.608 94.63 8.736 94.534 8.832C94.422 8.944 94.294 8.992 94.15 8.992H91.782C91.622 8.992 91.478 8.944 91.382 8.832C91.254 8.736 91.206 8.608 91.206 8.448V3.2H82.438ZM94.726 10.848C94.87 10.848 94.998 10.912 95.11 11.008C95.206 11.12 95.254 11.248 95.254 11.392V13.088C95.254 13.248 95.206 13.376 95.11 13.488C94.998 13.584 94.87 13.632 94.726 13.632H81.862C81.702 13.632 81.59 13.584 81.494 13.488C81.382 13.376 81.334 13.248 81.334 13.088V11.392C81.334 11.248 81.382 11.12 81.494 11.008C81.59 10.912 81.702 10.848 81.862 10.848H94.726Z" fill="#373737"/>
<path d="M103.357 3.856C103.357 4.016 103.293 4.144 103.197 4.24C103.085 4.352 102.957 4.4 102.813 4.4H99.3569V4.752H103.133C103.277 4.752 103.405 4.816 103.517 4.912C103.613 5.04 103.677 5.168 103.677 5.328V6.32C103.677 6.48 103.613 6.608 103.517 6.704C103.405 6.816 103.277 6.864 103.133 6.864H98.3489C97.7729 6.864 97.3249 6.72 97.0209 6.432C96.7009 6.16 96.5569 5.712 96.5569 5.104V3.152C96.5569 2.992 96.6049 2.864 96.7169 2.736C96.8129 2.64 96.9409 2.576 97.1009 2.576H100.621V2.24H97.0209C96.8609 2.24 96.7329 2.192 96.6369 2.08C96.5249 1.984 96.4769 1.856 96.4769 1.696V0.736C96.4769 0.576 96.5249 0.448 96.6369 0.320001C96.7329 0.224 96.8609 0.160001 97.0209 0.160001H102.797C102.941 0.160001 103.069 0.224 103.197 0.320001C103.293 0.432 103.357 0.56 103.357 0.704V3.856ZM106.781 0C106.925 0 107.053 0.0640001 107.165 0.160001C107.261 0.272 107.325 0.400001 107.325 0.544001V1.888H108.077V0.544001C108.077 0.400001 108.125 0.272 108.237 0.160001C108.333 0.0640001 108.445 0 108.605 0H110.685C110.829 0 110.957 0.0640001 111.069 0.160001C111.165 0.272 111.229 0.400001 111.229 0.544001V6.384C111.229 6.544 111.165 6.672 111.069 6.768C110.957 6.88 110.829 6.928 110.685 6.928H108.605C108.445 6.928 108.333 6.88 108.237 6.768C108.125 6.672 108.077 6.544 108.077 6.384V4.64H107.325V6.352C107.325 6.512 107.261 6.64 107.165 6.736C107.053 6.848 106.925 6.896 106.781 6.896H104.733C104.573 6.896 104.461 6.848 104.365 6.736C104.253 6.64 104.205 6.512 104.205 6.352V0.544001C104.205 0.400001 104.253 0.272 104.365 0.160001C104.461 0.0640001 104.573 0 104.733 0H106.781ZM100.573 11.2H107.869V9.888H100.573V11.2ZM99.0049 13.632C98.4289 13.632 97.9809 13.488 97.6769 13.216C97.3569 12.928 97.2129 12.48 97.2129 11.872V8.032C97.2129 7.888 97.2609 7.76 97.3889 7.648C97.4849 7.552 97.6129 7.488 97.7729 7.488H110.669C110.829 7.488 110.957 7.552 111.069 7.648C111.165 7.76 111.229 7.888 111.229 8.032V11.872C111.229 12.48 111.069 12.928 110.765 13.216C110.445 13.488 110.013 13.632 109.437 13.632H99.0049Z" fill="#373737"/>
</svg>
