<svg width="60" height="60" viewBox="0 0 60 60" fill="none" xmlns="http://www.w3.org/2000/svg">
<path d="M6 59.25C3.105 59.25 0.75 56.895 0.75 54V6C0.75 3.105 3.105 0.75 6 0.75H54C56.895 0.75 59.25 3.105 59.25 6V54C59.25 56.895 56.895 59.25 54 59.25H6Z" fill="#F5F7FA"/>
<path d="M54 1.5C56.475 1.5 58.5 3.525 58.5 6V54C58.5 56.475 56.475 58.5 54 58.5H6C3.525 58.5 1.5 56.475 1.5 54V6C1.5 3.525 3.525 1.5 6 1.5H54ZM54 0H6C2.7 0 0 2.7 0 6V54C0 57.3 2.7 60 6 60H54C57.3 60 60 57.3 60 54V6C60 2.7 57.3 0 54 0Z" fill="#E6E6EA"/>
<g clip-path="url(#clip0_2103_2506)">
<path fill-rule="evenodd" clip-rule="evenodd" d="M43.5001 30.3072C43.5012 29.381 43.4174 28.4565 43.2496 27.5449H30.272V32.7669H37.6861C37.5322 33.592 37.2093 34.378 36.7369 35.0775C36.2645 35.777 35.6524 36.3754 34.9374 36.8366V40.2246H39.3888C41.9934 37.8744 43.4962 34.4126 43.4962 30.3047L43.5001 30.3072Z" fill="#3E82F1"/>
<path fill-rule="evenodd" clip-rule="evenodd" d="M30.2759 43.4993C33.9953 43.4993 37.1139 42.2911 39.3927 40.2295L34.9414 36.8415C33.7072 37.6516 32.1291 38.1311 30.2759 38.1311C26.6876 38.1311 23.6508 35.7554 22.5685 32.5645H17.9653V36.0631C19.112 38.2993 20.8706 40.1789 23.0445 41.4921C25.2185 42.8053 27.7222 43.5002 30.2759 43.4993Z" fill="#32A753"/>
<path fill-rule="evenodd" clip-rule="evenodd" d="M22.5683 32.5633C21.9921 30.9003 21.9921 29.0973 22.5683 27.4342V23.9355H17.9651C17.0017 25.8173 16.5 27.8935 16.5 29.9988C16.5 32.1041 17.0017 34.1803 17.9651 36.062L22.5683 32.5633Z" fill="#F9BB00"/>
<path fill-rule="evenodd" clip-rule="evenodd" d="M30.2758 21.8682C32.299 21.8682 34.1146 22.5499 35.5421 23.8878L39.4925 20.0152C37.1072 17.8366 33.9887 16.5 30.2784 16.5C27.7246 16.4991 25.2209 17.194 23.047 18.5072C20.873 19.8203 19.1145 21.7 17.9678 23.9361L22.5709 27.4348C23.6533 24.2439 26.6901 21.8682 30.2784 21.8682H30.2758Z" fill="#E74133"/>
</g>
<defs>
<clipPath id="clip0_2103_2506">
<rect width="27" height="27" fill="white" transform="translate(16.5 16.5)"/>
</clipPath>
</defs>
</svg>
